<svg xmlns="http://www.w3.org/2000/svg" viewBox="0 0 900 560" width="900" height="560" role="img" aria-label="A portrait of Reykjavík in the Daily Manifest's colours, rubber stamps for the 2 notices it opened, 2 ribboned crates for the offers the world kept, 4 plain crates for the offers it declined, none of them marked with a sender, and a shed with the door shut, for the offers it sent that nobody chose and that this paper does not count.">
<rect x="0.0" y="0.0" width="900.0" height="560.0" rx="0" fill="#f3f7ec"/>
<rect x="0.0" y="0.0" width="900.0" height="58.0" rx="0" fill="#1a2415"/>
<text x="24.0" y="38.0" fill="#f3f7ec" font-family="Georgia, 'Times New Roman', serif" font-size="26" font-weight="bold" text-anchor="start" letter-spacing="3">THE DAILY MANIFEST</text>
<text x="876.0" y="26.0" fill="#f3f7ec" font-family="'Helvetica Neue', Helvetica, Arial, sans-serif" font-size="14" font-weight="normal" text-anchor="end">Vol. I, No. 12 — FINAL EDITION</text>
<text x="876.0" y="46.0" fill="#f3f7ec" font-family="'Helvetica Neue', Helvetica, Arial, sans-serif" font-size="12" font-weight="normal" text-anchor="end" font-style="italic">Monday, 14 September 2026</text>
<rect x="0.0" y="58.0" width="900.0" height="266.0" rx="0" fill="#bfe08a"/>
<circle cx="126.0" cy="128.0" r="38.0" fill="#e4772e" opacity="0.85"/>
<text x="28.0" y="100.0" fill="#1a2415" font-family="Georgia, 'Times New Roman', serif" font-size="34" font-weight="bold" text-anchor="start">Reykjavík</text>
<text x="28.0" y="124.0" fill="#1a2415" font-family="'Helvetica Neue', Helvetica, Arial, sans-serif" font-size="14" font-weight="normal" text-anchor="start" font-style="italic">fifth on 5.75</text>
<rect x="306.0" y="276.8" width="59.0" height="47.2" rx="0" fill="#6a9a3c"/>
<rect x="321.1" y="285.8" width="12.1" height="9.0" rx="0" fill="#f3f7ec" opacity="0.75"/>
<rect x="321.1" y="307.8" width="12.1" height="9.0" rx="0" fill="#f3f7ec" opacity="0.75"/>
<rect x="381.6" y="262.8" width="59.0" height="61.2" rx="0" fill="#a8c96a"/>
<rect x="396.7" y="271.8" width="12.1" height="9.0" rx="0" fill="#f3f7ec" opacity="0.75"/>
<rect x="396.7" y="293.8" width="12.1" height="9.0" rx="0" fill="#f3f7ec" opacity="0.75"/>
<rect x="457.2" y="271.5" width="59.0" height="52.5" rx="0" fill="#6a9a3c"/>
<rect x="472.3" y="280.5" width="12.1" height="9.0" rx="0" fill="#f3f7ec" opacity="0.75"/>
<rect x="472.3" y="302.5" width="12.1" height="9.0" rx="0" fill="#f3f7ec" opacity="0.75"/>
<rect x="532.8" y="267.2" width="59.0" height="56.8" rx="0" fill="#a8c96a"/>
<rect x="547.9" y="276.2" width="12.1" height="9.0" rx="0" fill="#f3f7ec" opacity="0.75"/>
<rect x="547.9" y="298.2" width="12.1" height="9.0" rx="0" fill="#f3f7ec" opacity="0.75"/>
<text x="306.0" y="262.8" fill="#1a2415" font-family="'Helvetica Neue', Helvetica, Arial, sans-serif" font-size="15" font-weight="bold" text-anchor="start">5.75</text>
<g transform="rotate(-4 526.0 116.0)">
<rect x="396.0" y="82.0" width="262.0" height="68.0" rx="5" fill="none" opacity="0.75" stroke="#1a2415" stroke-width="3"/>
<text x="527.0" y="110.0" fill="#1a2415" font-family="'Helvetica Neue', Helvetica, Arial, sans-serif" font-size="13" font-weight="bold" text-anchor="middle" letter-spacing="1.2">PLANTS &amp; CUTTINGS</text>
<text x="527.0" y="134.0" fill="#1a2415" font-family="'Helvetica Neue', Helvetica, Arial, sans-serif" font-size="12" font-weight="normal" text-anchor="middle" font-style="italic">Window boxes for one long grey…</text>
</g>
<g transform="rotate(3 550.0 176.0)">
<rect x="420.0" y="142.0" width="262.0" height="68.0" rx="5" fill="none" opacity="0.75" stroke="#1a2415" stroke-width="3"/>
<text x="551.0" y="170.0" fill="#1a2415" font-family="'Helvetica Neue', Helvetica, Arial, sans-serif" font-size="13" font-weight="bold" text-anchor="middle" letter-spacing="1.2">SMALL COMFORTS</text>
<text x="551.0" y="194.0" fill="#1a2415" font-family="'Helvetica Neue', Helvetica, Arial, sans-serif" font-size="12" font-weight="normal" text-anchor="middle" font-style="italic">Four hundred hot water bottles,…</text>
</g>
<rect x="0.0" y="324.0" width="900.0" height="236.0" rx="0" fill="#3f6b3a"/>
<rect x="0.0" y="324.0" width="900.0" height="20.0" rx="0" fill="#6a9a3c" opacity="0.5"/>
<path d="M 26 360 q 22 -8 44 0 t 44 0 t 44 0" stroke="#f3f7ec" stroke-width="2" fill="none"/>
<path d="M 48 380 q 22 -8 44 0 t 44 0 t 44 0" stroke="#f3f7ec" stroke-width="2" fill="none"/>
<path d="M 26 400 q 22 -8 44 0 t 44 0 t 44 0" stroke="#f3f7ec" stroke-width="2" fill="none"/>
<path d="M 48 420 q 22 -8 44 0 t 44 0 t 44 0" stroke="#f3f7ec" stroke-width="2" fill="none"/>
<path d="M 26 440 q 22 -8 44 0 t 44 0 t 44 0" stroke="#f3f7ec" stroke-width="2" fill="none"/>
<rect x="0.0" y="346.0" width="900.0" height="10.0" rx="0" fill="#1a2415"/>
<rect x="30.0" y="312.0" width="30.0" height="30.0" rx="3" fill="#e4772e" stroke="#1a2415" stroke-width="2"/>
<line x1="33.0" y1="327.0" x2="57.0" y2="327.0" stroke="#f3f7ec" stroke-width="2"/>
<line x1="45.0" y1="315.0" x2="45.0" y2="339.0" stroke="#f3f7ec" stroke-width="2"/>
<polygon points="45.0,298.0 34.0,311.0 56.0,311.0" fill="#e4772e"/>
<circle cx="45.0" cy="295.0" r="6.0" fill="#f3f7ec"/>
<circle cx="45.0" cy="295.0" r="4.0" fill="#e4772e"/>
<rect x="68.0" y="312.0" width="30.0" height="30.0" rx="3" fill="#e4772e" stroke="#1a2415" stroke-width="2"/>
<line x1="71.0" y1="327.0" x2="95.0" y2="327.0" stroke="#f3f7ec" stroke-width="2"/>
<line x1="83.0" y1="315.0" x2="83.0" y2="339.0" stroke="#f3f7ec" stroke-width="2"/>
<polygon points="83.0,298.0 72.0,311.0 94.0,311.0" fill="#e4772e"/>
<circle cx="83.0" cy="295.0" r="6.0" fill="#f3f7ec"/>
<circle cx="83.0" cy="295.0" r="4.0" fill="#e4772e"/>
<text x="30.0" y="290.0" fill="#1a2415" font-family="'Helvetica Neue', Helvetica, Arial, sans-serif" font-size="13" font-weight="bold" text-anchor="start">offers the world kept: 2</text>
<rect x="206.0" y="312.0" width="30.0" height="30.0" rx="3" fill="#6a9a3c" stroke="#1a2415" stroke-width="2"/>
<line x1="209.0" y1="327.0" x2="233.0" y2="327.0" stroke="#f3f7ec" stroke-width="2"/>
<line x1="221.0" y1="315.0" x2="221.0" y2="339.0" stroke="#f3f7ec" stroke-width="2"/>
<rect x="244.0" y="312.0" width="30.0" height="30.0" rx="3" fill="#6a9a3c" stroke="#1a2415" stroke-width="2"/>
<line x1="247.0" y1="327.0" x2="271.0" y2="327.0" stroke="#f3f7ec" stroke-width="2"/>
<line x1="259.0" y1="315.0" x2="259.0" y2="339.0" stroke="#f3f7ec" stroke-width="2"/>
<rect x="282.0" y="312.0" width="30.0" height="30.0" rx="3" fill="#6a9a3c" stroke="#1a2415" stroke-width="2"/>
<line x1="285.0" y1="327.0" x2="309.0" y2="327.0" stroke="#f3f7ec" stroke-width="2"/>
<line x1="297.0" y1="315.0" x2="297.0" y2="339.0" stroke="#f3f7ec" stroke-width="2"/>
<rect x="320.0" y="312.0" width="30.0" height="30.0" rx="3" fill="#6a9a3c" stroke="#1a2415" stroke-width="2"/>
<line x1="323.0" y1="327.0" x2="347.0" y2="327.0" stroke="#f3f7ec" stroke-width="2"/>
<line x1="335.0" y1="315.0" x2="335.0" y2="339.0" stroke="#f3f7ec" stroke-width="2"/>
<text x="206.0" y="290.0" fill="#1a2415" font-family="'Helvetica Neue', Helvetica, Arial, sans-serif" font-size="13" font-weight="bold" text-anchor="start">unchosen offers, senders unknown: 4</text>
<rect x="710.0" y="238.0" width="150.0" height="104.0" rx="2" fill="#a8c96a" stroke="#1a2415" stroke-width="2"/>
<polygon points="702.0,238.0 868.0,238.0 785.0,204.0" fill="#1a2415"/>
<rect x="757.0" y="274.0" width="56.0" height="68.0" rx="0" fill="#f3f7ec" stroke="#1a2415" stroke-width="2"/>
<line x1="785.0" y1="274.0" x2="785.0" y2="342.0" stroke="#1a2415" stroke-width="2"/>
<circle cx="785.0" cy="308.0" r="11.0" fill="#e4772e"/>
<text x="785.0" y="196.0" fill="#1a2415" font-family="'Helvetica Neue', Helvetica, Arial, sans-serif" font-size="12" font-weight="normal" text-anchor="middle" font-style="italic">offers sent and not chosen — seal…</text>
<path d="M 558.0 118.0 q 7.2 -9.0 14.4 0 q 7.2 -9.0 14.4 0" stroke="#1a2415" stroke-width="2.2" fill="none"/>
<rect x="0.0" y="508.0" width="900.0" height="52.0" rx="0" fill="#1a2415"/>
<text x="24.0" y="534.0" fill="#f3f7ec" font-family="Georgia, 'Times New Roman', serif" font-size="14" font-weight="normal" text-anchor="start" font-style="italic">Reykjavík at the end of the game, with 4 declined offers behind it and the shed door shut on the rest.</text>
<text x="24.0" y="548.0" fill="#f3f7ec" font-family="'Helvetica Neue', Helvetica, Arial, sans-serif" font-size="10" font-weight="normal" text-anchor="start">The last edition of this paper. Mayors are named by city and office only, and no unchosen offer is traced to its sender, today or ever.</text>
</svg>