<svg xmlns="http://www.w3.org/2000/svg" viewBox="0 0 1200 700" width="1200" height="700" role="img" aria-label="A harbour scene in the Daily Manifest's colours, stamped transport &amp; logistics, 2 crates on the quay, 1 of them ribboned, dice showing 5 and 1, a skyline of 5 city towers ranked by profit, and 4 pennants overhead, one per reply.">
<rect x="0.0" y="0.0" width="1200.0" height="700.0" rx="0" fill="#f5f5f0"/>
<rect x="0.0" y="0.0" width="1200.0" height="66.0" rx="0" fill="#1b1f24"/>
<text x="28.0" y="44.0" fill="#f5f5f0" font-family="Georgia, 'Times New Roman', serif" font-size="30" font-weight="bold" text-anchor="start" letter-spacing="3">THE DAILY MANIFEST</text>
<text x="1172.0" y="30.0" fill="#f5f5f0" font-family="'Helvetica Neue', Helvetica, Arial, sans-serif" font-size="15" font-weight="normal" text-anchor="end">Vol. I, No. 3</text>
<text x="1172.0" y="52.0" fill="#f5f5f0" font-family="'Helvetica Neue', Helvetica, Arial, sans-serif" font-size="13" font-weight="normal" text-anchor="end" font-style="italic">Saturday, 5 September 2026</text>
<rect x="0.0" y="66.0" width="1200.0" height="368.0" rx="0" fill="#c8d6dd"/>
<circle cx="984.0" cy="170.0" r="54.0" fill="#e8541e" opacity="0.9"/>
<rect x="584.8" y="166.0" width="58.0" height="268.0" rx="0" fill="#5c7c8a"/>
<rect x="597.6" y="178.0" width="11.6" height="11.0" rx="0" fill="#e8541e" opacity="0.85"/>
<rect x="618.4" y="178.0" width="11.6" height="11.0" rx="0" fill="#e8541e" opacity="0.85"/>
<rect x="597.6" y="204.0" width="11.6" height="11.0" rx="0" fill="#e8541e" opacity="0.85"/>
<rect x="618.4" y="204.0" width="11.6" height="11.0" rx="0" fill="#e8541e" opacity="0.85"/>
<rect x="597.6" y="230.0" width="11.6" height="11.0" rx="0" fill="#e8541e" opacity="0.85"/>
<rect x="618.4" y="230.0" width="11.6" height="11.0" rx="0" fill="#e8541e" opacity="0.85"/>
<rect x="597.6" y="256.0" width="11.6" height="11.0" rx="0" fill="#e8541e" opacity="0.85"/>
<rect x="618.4" y="256.0" width="11.6" height="11.0" rx="0" fill="#e8541e" opacity="0.85"/>
<rect x="597.6" y="282.0" width="11.6" height="11.0" rx="0" fill="#e8541e" opacity="0.85"/>
<rect x="618.4" y="282.0" width="11.6" height="11.0" rx="0" fill="#e8541e" opacity="0.85"/>
<rect x="597.6" y="308.0" width="11.6" height="11.0" rx="0" fill="#e8541e" opacity="0.85"/>
<rect x="618.4" y="308.0" width="11.6" height="11.0" rx="0" fill="#e8541e" opacity="0.85"/>
<rect x="597.6" y="334.0" width="11.6" height="11.0" rx="0" fill="#e8541e" opacity="0.85"/>
<rect x="618.4" y="334.0" width="11.6" height="11.0" rx="0" fill="#e8541e" opacity="0.85"/>
<rect x="597.6" y="360.0" width="11.6" height="11.0" rx="0" fill="#e8541e" opacity="0.85"/>
<rect x="618.4" y="360.0" width="11.6" height="11.0" rx="0" fill="#e8541e" opacity="0.85"/>
<rect x="597.6" y="386.0" width="11.6" height="11.0" rx="0" fill="#e8541e" opacity="0.85"/>
<rect x="618.4" y="386.0" width="11.6" height="11.0" rx="0" fill="#e8541e" opacity="0.85"/>
<rect x="597.6" y="412.0" width="11.6" height="11.0" rx="0" fill="#e8541e" opacity="0.85"/>
<rect x="618.4" y="412.0" width="11.6" height="11.0" rx="0" fill="#e8541e" opacity="0.85"/>
<text x="613.8" y="146.0" fill="#1b1f24" font-family="'Helvetica Neue', Helvetica, Arial, sans-serif" font-size="14" font-weight="bold" text-anchor="middle">6</text>
<text x="613.8" y="426.0" fill="#f5f5f0" font-family="'Helvetica Neue', Helvetica, Arial, sans-serif" font-size="12" font-weight="normal" text-anchor="middle">Valparaíso</text>
<rect x="708.4" y="400.0" width="58.0" height="34.0" rx="0" fill="#a3bcc6"/>
<rect x="721.2" y="412.0" width="11.6" height="11.0" rx="0" fill="#e8541e" opacity="0.85"/>
<rect x="742.0" y="412.0" width="11.6" height="11.0" rx="0" fill="#e8541e" opacity="0.85"/>
<text x="737.4" y="380.0" fill="#1b1f24" font-family="'Helvetica Neue', Helvetica, Arial, sans-serif" font-size="14" font-weight="bold" text-anchor="middle">0</text>
<text x="737.4" y="426.0" fill="#f5f5f0" font-family="'Helvetica Neue', Helvetica, Arial, sans-serif" font-size="12" font-weight="normal" text-anchor="middle">Bergen</text>
<rect x="832.0" y="400.0" width="58.0" height="34.0" rx="0" fill="#5c7c8a"/>
<rect x="844.8" y="412.0" width="11.6" height="11.0" rx="0" fill="#e8541e" opacity="0.85"/>
<rect x="865.6" y="412.0" width="11.6" height="11.0" rx="0" fill="#e8541e" opacity="0.85"/>
<text x="861.0" y="380.0" fill="#1b1f24" font-family="'Helvetica Neue', Helvetica, Arial, sans-serif" font-size="14" font-weight="bold" text-anchor="middle">0</text>
<text x="861.0" y="426.0" fill="#f5f5f0" font-family="'Helvetica Neue', Helvetica, Arial, sans-serif" font-size="12" font-weight="normal" text-anchor="middle">Hobart</text>
<rect x="955.6" y="400.0" width="58.0" height="34.0" rx="0" fill="#a3bcc6"/>
<rect x="968.4" y="412.0" width="11.6" height="11.0" rx="0" fill="#e8541e" opacity="0.85"/>
<rect x="989.2" y="412.0" width="11.6" height="11.0" rx="0" fill="#e8541e" opacity="0.85"/>
<text x="984.6" y="380.0" fill="#1b1f24" font-family="'Helvetica Neue', Helvetica, Arial, sans-serif" font-size="14" font-weight="bold" text-anchor="middle">0</text>
<text x="984.6" y="426.0" fill="#f5f5f0" font-family="'Helvetica Neue', Helvetica, Arial, sans-serif" font-size="12" font-weight="normal" text-anchor="middle">Kampala</text>
<rect x="1079.2" y="400.0" width="58.0" height="34.0" rx="0" fill="#5c7c8a"/>
<rect x="1092.0" y="412.0" width="11.6" height="11.0" rx="0" fill="#e8541e" opacity="0.85"/>
<rect x="1112.8" y="412.0" width="11.6" height="11.0" rx="0" fill="#e8541e" opacity="0.85"/>
<text x="1108.2" y="380.0" fill="#1b1f24" font-family="'Helvetica Neue', Helvetica, Arial, sans-serif" font-size="14" font-weight="bold" text-anchor="middle">0</text>
<text x="1108.2" y="426.0" fill="#f5f5f0" font-family="'Helvetica Neue', Helvetica, Arial, sans-serif" font-size="12" font-weight="normal" text-anchor="middle">Reykjavík</text>
<rect x="0.0" y="434.0" width="1200.0" height="266.0" rx="0" fill="#37525e"/>
<rect x="0.0" y="434.0" width="1200.0" height="26.0" rx="0" fill="#5c7c8a" opacity="0.55"/>
<path d="M 30 480 q 24 -9 48 0 t 48 0 t 48 0 t 48 0" stroke="#f5f5f0" stroke-width="2" fill="none"/>
<path d="M 56 502 q 24 -9 48 0 t 48 0 t 48 0 t 48 0" stroke="#f5f5f0" stroke-width="2" fill="none"/>
<path d="M 30 524 q 24 -9 48 0 t 48 0 t 48 0 t 48 0" stroke="#f5f5f0" stroke-width="2" fill="none"/>
<path d="M 56 546 q 24 -9 48 0 t 48 0 t 48 0 t 48 0" stroke="#f5f5f0" stroke-width="2" fill="none"/>
<path d="M 30 568 q 24 -9 48 0 t 48 0 t 48 0 t 48 0" stroke="#f5f5f0" stroke-width="2" fill="none"/>
<path d="M 56 590 q 24 -9 48 0 t 48 0 t 48 0 t 48 0" stroke="#f5f5f0" stroke-width="2" fill="none"/>
<path d="M 30 612 q 24 -9 48 0 t 48 0 t 48 0 t 48 0" stroke="#f5f5f0" stroke-width="2" fill="none"/>
<rect x="0.0" y="460.0" width="1200.0" height="12.0" rx="0" fill="#1b1f24"/>
<path d="M 90.0 104.0 Q 417.0 146.0 744.0 104.0" stroke="#1b1f24" stroke-width="2" fill="none"/>
<polygon points="209.8,117.4 231.8,117.4 220.8,147.4" fill="#e8541e"/>
<polygon points="340.6,124.2 362.6,124.2 351.6,154.2" fill="#e8541e"/>
<polygon points="471.4,124.2 493.4,124.2 482.4,154.2" fill="#e8541e"/>
<polygon points="602.2,117.4 624.2,117.4 613.2,147.4" fill="#a3bcc6"/>
<text x="90.0" y="90.0" fill="#1b1f24" font-family="'Helvetica Neue', Helvetica, Arial, sans-serif" font-size="13" font-weight="normal" text-anchor="start" font-style="italic">replies to the mayoral question: 4</text>
<rect x="46.0" y="402.0" width="54.0" height="54.0" rx="3" fill="#5c7c8a" stroke="#1b1f24" stroke-width="2"/>
<line x1="50.0" y1="429.0" x2="96.0" y2="429.0" stroke="#f5f5f0" stroke-width="3"/>
<line x1="73.0" y1="406.0" x2="73.0" y2="452.0" stroke="#f5f5f0" stroke-width="3"/>
<rect x="112.0" y="402.0" width="54.0" height="54.0" rx="3" fill="#e8541e" stroke="#1b1f24" stroke-width="2"/>
<line x1="116.0" y1="429.0" x2="162.0" y2="429.0" stroke="#f5f5f0" stroke-width="3"/>
<line x1="139.0" y1="406.0" x2="139.0" y2="452.0" stroke="#f5f5f0" stroke-width="3"/>
<polygon points="139.0,382.0 123.0,400.0 155.0,400.0" fill="#e8541e"/>
<circle cx="139.0" cy="378.0" r="9.0" fill="#f5f5f0"/>
<circle cx="139.0" cy="378.0" r="6.0" fill="#e8541e"/>
<text x="46.0" y="386.0" fill="#1b1f24" font-family="'Helvetica Neue', Helvetica, Arial, sans-serif" font-size="14" font-weight="bold" text-anchor="start">offers received: 2</text>
<text x="46.0" y="494.0" fill="#1b1f24" font-family="'Helvetica Neue', Helvetica, Arial, sans-serif" font-size="15" font-weight="bold" text-anchor="start">chosen: Valparaíso</text>
<text x="1160.0" y="504.0" fill="#f5f5f0" font-family="'Helvetica Neue', Helvetica, Arial, sans-serif" font-size="14" font-weight="bold" text-anchor="end">the roll: 6</text>
<rect x="1056.0" y="516.0" width="46.0" height="46.0" rx="8" fill="#f5f5f0" stroke="#1b1f24" stroke-width="2"/>
<circle cx="1068.0" cy="528.0" r="4.4" fill="#1b1f24"/>
<circle cx="1090.0" cy="528.0" r="4.4" fill="#1b1f24"/>
<circle cx="1079.0" cy="539.0" r="4.4" fill="#1b1f24"/>
<circle cx="1068.0" cy="550.0" r="4.4" fill="#1b1f24"/>
<circle cx="1090.0" cy="550.0" r="4.4" fill="#1b1f24"/>
<rect x="1114.0" y="516.0" width="46.0" height="46.0" rx="8" fill="#f5f5f0" stroke="#1b1f24" stroke-width="2"/>
<circle cx="1137.0" cy="539.0" r="4.4" fill="#1b1f24"/>
<rect x="480.0" y="250.0" width="12.0" height="210.0" rx="0" fill="#1b1f24"/>
<rect x="404.0" y="250.0" width="150.0" height="11.0" rx="0" fill="#1b1f24"/>
<line x1="420.0" y1="261.0" x2="420.0" y2="320.0" stroke="#1b1f24" stroke-width="2"/>
<rect x="406.0" y="320.0" width="28.0" height="22.0" rx="2" fill="#e8541e"/>
<path d="M 250.0 150.0 q 9.0 -11.0 18.0 0 q 9.0 -11.0 18.0 0" stroke="#1b1f24" stroke-width="2.5" fill="none"/>
<path d="M 302.0 126.0 q 6.5 -7.9 13.0 0 q 6.5 -7.9 13.0 0" stroke="#1b1f24" stroke-width="2.5" fill="none"/>
<path d="M 958.0 252.0 q 7.7 -9.5 15.5 0 q 7.7 -9.5 15.5 0" stroke="#1b1f24" stroke-width="2.5" fill="none"/>
<g transform="rotate(-4 852.0 172.0)">
<rect x="702.0" y="128.0" width="306.0" height="88.0" rx="6" fill="none" opacity="0.8" stroke="#1b1f24" stroke-width="3"/>
<text x="855.0" y="164.0" fill="#1b1f24" font-family="'Helvetica Neue', Helvetica, Arial, sans-serif" font-size="15" font-weight="bold" text-anchor="middle" letter-spacing="1.5">TRANSPORT &amp; LOGISTICS</text>
<text x="855.0" y="192.0" fill="#1b1f24" font-family="'Helvetica Neue', Helvetica, Arial, sans-serif" font-size="14" font-weight="normal" text-anchor="middle" font-style="italic">Haulage for a nineteen per cent g…</text>
</g>
<rect x="0.0" y="642.0" width="1200.0" height="58.0" rx="0" fill="#1b1f24"/>
<text x="28.0" y="668.0" fill="#f5f5f0" font-family="Georgia, 'Times New Roman', serif" font-size="15" font-weight="normal" text-anchor="start" font-style="italic">One crate came off the boat with a ribbon on it. Valparaíso sent it. The others are not saying anything.</text>
<text x="28.0" y="688.0" fill="#f5f5f0" font-family="'Helvetica Neue', Helvetica, Arial, sans-serif" font-size="11" font-weight="normal" text-anchor="start">Published once per round by the Sister Cities desk. Mayors are named by city and office only.</text>
</svg>