<svg xmlns="http://www.w3.org/2000/svg" viewBox="0 0 1200 700" width="1200" height="700" role="img" aria-label="A harbour scene in the Daily Manifest's colours, stamped toys &amp; novelties, 3 crates on the quay, 1 of them ribboned, a boat at the mooring, dice showing 4 and 5, a skyline of 5 city towers ranked by profit, and 4 pennants overhead, one per reply.">
<rect x="0.0" y="0.0" width="1200.0" height="700.0" rx="0" fill="#fdf6e0"/>
<rect x="0.0" y="0.0" width="1200.0" height="66.0" rx="0" fill="#241f10"/>
<text x="28.0" y="44.0" fill="#fdf6e0" font-family="Georgia, 'Times New Roman', serif" font-size="30" font-weight="bold" text-anchor="start" letter-spacing="3">THE DAILY MANIFEST</text>
<text x="1172.0" y="30.0" fill="#fdf6e0" font-family="'Helvetica Neue', Helvetica, Arial, sans-serif" font-size="15" font-weight="normal" text-anchor="end">Vol. I, No. 9</text>
<text x="1172.0" y="52.0" fill="#fdf6e0" font-family="'Helvetica Neue', Helvetica, Arial, sans-serif" font-size="13" font-weight="normal" text-anchor="end" font-style="italic">Friday, 11 September 2026</text>
<rect x="0.0" y="66.0" width="1200.0" height="368.0" rx="0" fill="#ffe08a"/>
<defs><pattern id="tooth" width="14" height="14" patternUnits="userSpaceOnUse"><circle cx="7.0" cy="7.0" r="1.6" fill="#fdf6e0" opacity="0.5"/></pattern></defs>
<rect x="0.0" y="66.0" width="1200.0" height="368.0" rx="0" fill="url(#tooth)"/>
<circle cx="984.0" cy="170.0" r="54.0" fill="#e03e2f" opacity="0.9"/>
<rect x="584.8" y="166.0" width="58.0" height="268.0" rx="0" fill="#c99a1e"/>
<rect x="597.6" y="178.0" width="11.6" height="11.0" rx="0" fill="#e03e2f" opacity="0.85"/>
<rect x="618.4" y="178.0" width="11.6" height="11.0" rx="0" fill="#e03e2f" opacity="0.85"/>
<rect x="597.6" y="204.0" width="11.6" height="11.0" rx="0" fill="#e03e2f" opacity="0.85"/>
<rect x="618.4" y="204.0" width="11.6" height="11.0" rx="0" fill="#e03e2f" opacity="0.85"/>
<rect x="597.6" y="230.0" width="11.6" height="11.0" rx="0" fill="#e03e2f" opacity="0.85"/>
<rect x="618.4" y="230.0" width="11.6" height="11.0" rx="0" fill="#e03e2f" opacity="0.85"/>
<rect x="597.6" y="256.0" width="11.6" height="11.0" rx="0" fill="#e03e2f" opacity="0.85"/>
<rect x="618.4" y="256.0" width="11.6" height="11.0" rx="0" fill="#e03e2f" opacity="0.85"/>
<rect x="597.6" y="282.0" width="11.6" height="11.0" rx="0" fill="#e03e2f" opacity="0.85"/>
<rect x="618.4" y="282.0" width="11.6" height="11.0" rx="0" fill="#e03e2f" opacity="0.85"/>
<rect x="597.6" y="308.0" width="11.6" height="11.0" rx="0" fill="#e03e2f" opacity="0.85"/>
<rect x="618.4" y="308.0" width="11.6" height="11.0" rx="0" fill="#e03e2f" opacity="0.85"/>
<rect x="597.6" y="334.0" width="11.6" height="11.0" rx="0" fill="#e03e2f" opacity="0.85"/>
<rect x="618.4" y="334.0" width="11.6" height="11.0" rx="0" fill="#e03e2f" opacity="0.85"/>
<rect x="597.6" y="360.0" width="11.6" height="11.0" rx="0" fill="#e03e2f" opacity="0.85"/>
<rect x="618.4" y="360.0" width="11.6" height="11.0" rx="0" fill="#e03e2f" opacity="0.85"/>
<rect x="597.6" y="386.0" width="11.6" height="11.0" rx="0" fill="#e03e2f" opacity="0.85"/>
<rect x="618.4" y="386.0" width="11.6" height="11.0" rx="0" fill="#e03e2f" opacity="0.85"/>
<rect x="597.6" y="412.0" width="11.6" height="11.0" rx="0" fill="#e03e2f" opacity="0.85"/>
<rect x="618.4" y="412.0" width="11.6" height="11.0" rx="0" fill="#e03e2f" opacity="0.85"/>
<text x="613.8" y="146.0" fill="#241f10" font-family="'Helvetica Neue', Helvetica, Arial, sans-serif" font-size="14" font-weight="bold" text-anchor="middle">28.75</text>
<text x="613.8" y="426.0" fill="#fdf6e0" font-family="'Helvetica Neue', Helvetica, Arial, sans-serif" font-size="12" font-weight="normal" text-anchor="middle">Kampala</text>
<rect x="708.4" y="328.8" width="58.0" height="105.2" rx="0" fill="#f0cf6a"/>
<rect x="721.2" y="340.8" width="11.6" height="11.0" rx="0" fill="#e03e2f" opacity="0.85"/>
<rect x="742.0" y="340.8" width="11.6" height="11.0" rx="0" fill="#e03e2f" opacity="0.85"/>
<rect x="721.2" y="366.8" width="11.6" height="11.0" rx="0" fill="#e03e2f" opacity="0.85"/>
<rect x="742.0" y="366.8" width="11.6" height="11.0" rx="0" fill="#e03e2f" opacity="0.85"/>
<rect x="721.2" y="392.8" width="11.6" height="11.0" rx="0" fill="#e03e2f" opacity="0.85"/>
<rect x="742.0" y="392.8" width="11.6" height="11.0" rx="0" fill="#e03e2f" opacity="0.85"/>
<rect x="721.2" y="418.8" width="11.6" height="11.0" rx="0" fill="#e03e2f" opacity="0.85"/>
<rect x="742.0" y="418.8" width="11.6" height="11.0" rx="0" fill="#e03e2f" opacity="0.85"/>
<text x="737.4" y="308.8" fill="#241f10" font-family="'Helvetica Neue', Helvetica, Arial, sans-serif" font-size="14" font-weight="bold" text-anchor="middle">8.75</text>
<text x="737.4" y="426.0" fill="#fdf6e0" font-family="'Helvetica Neue', Helvetica, Arial, sans-serif" font-size="12" font-weight="normal" text-anchor="middle">Hobart</text>
<rect x="832.0" y="328.8" width="58.0" height="105.2" rx="0" fill="#c99a1e"/>
<rect x="844.8" y="340.8" width="11.6" height="11.0" rx="0" fill="#e03e2f" opacity="0.85"/>
<rect x="865.6" y="340.8" width="11.6" height="11.0" rx="0" fill="#e03e2f" opacity="0.85"/>
<rect x="844.8" y="366.8" width="11.6" height="11.0" rx="0" fill="#e03e2f" opacity="0.85"/>
<rect x="865.6" y="366.8" width="11.6" height="11.0" rx="0" fill="#e03e2f" opacity="0.85"/>
<rect x="844.8" y="392.8" width="11.6" height="11.0" rx="0" fill="#e03e2f" opacity="0.85"/>
<rect x="865.6" y="392.8" width="11.6" height="11.0" rx="0" fill="#e03e2f" opacity="0.85"/>
<rect x="844.8" y="418.8" width="11.6" height="11.0" rx="0" fill="#e03e2f" opacity="0.85"/>
<rect x="865.6" y="418.8" width="11.6" height="11.0" rx="0" fill="#e03e2f" opacity="0.85"/>
<text x="861.0" y="308.8" fill="#241f10" font-family="'Helvetica Neue', Helvetica, Arial, sans-serif" font-size="14" font-weight="bold" text-anchor="middle">8.75</text>
<text x="861.0" y="426.0" fill="#fdf6e0" font-family="'Helvetica Neue', Helvetica, Arial, sans-serif" font-size="12" font-weight="normal" text-anchor="middle">Valparaíso</text>
<rect x="955.6" y="353.2" width="58.0" height="80.8" rx="0" fill="#f0cf6a"/>
<rect x="968.4" y="365.2" width="11.6" height="11.0" rx="0" fill="#e03e2f" opacity="0.85"/>
<rect x="989.2" y="365.2" width="11.6" height="11.0" rx="0" fill="#e03e2f" opacity="0.85"/>
<rect x="968.4" y="391.2" width="11.6" height="11.0" rx="0" fill="#e03e2f" opacity="0.85"/>
<rect x="989.2" y="391.2" width="11.6" height="11.0" rx="0" fill="#e03e2f" opacity="0.85"/>
<rect x="968.4" y="417.2" width="11.6" height="11.0" rx="0" fill="#e03e2f" opacity="0.85"/>
<rect x="989.2" y="417.2" width="11.6" height="11.0" rx="0" fill="#e03e2f" opacity="0.85"/>
<text x="984.6" y="333.2" fill="#241f10" font-family="'Helvetica Neue', Helvetica, Arial, sans-serif" font-size="14" font-weight="bold" text-anchor="middle">5.75</text>
<text x="984.6" y="426.0" fill="#fdf6e0" font-family="'Helvetica Neue', Helvetica, Arial, sans-serif" font-size="12" font-weight="normal" text-anchor="middle">Reykjavík</text>
<rect x="1079.2" y="400.0" width="58.0" height="34.0" rx="0" fill="#c99a1e"/>
<rect x="1092.0" y="412.0" width="11.6" height="11.0" rx="0" fill="#e03e2f" opacity="0.85"/>
<rect x="1112.8" y="412.0" width="11.6" height="11.0" rx="0" fill="#e03e2f" opacity="0.85"/>
<text x="1108.2" y="380.0" fill="#241f10" font-family="'Helvetica Neue', Helvetica, Arial, sans-serif" font-size="14" font-weight="bold" text-anchor="middle">0</text>
<text x="1108.2" y="426.0" fill="#fdf6e0" font-family="'Helvetica Neue', Helvetica, Arial, sans-serif" font-size="12" font-weight="normal" text-anchor="middle">Bergen</text>
<rect x="0.0" y="434.0" width="1200.0" height="266.0" rx="0" fill="#7a5c1e"/>
<rect x="0.0" y="434.0" width="1200.0" height="26.0" rx="0" fill="#c99a1e" opacity="0.55"/>
<path d="M 30 480 q 24 -9 48 0 t 48 0 t 48 0 t 48 0" stroke="#fdf6e0" stroke-width="2" fill="none"/>
<path d="M 56 502 q 24 -9 48 0 t 48 0 t 48 0 t 48 0" stroke="#fdf6e0" stroke-width="2" fill="none"/>
<path d="M 30 524 q 24 -9 48 0 t 48 0 t 48 0 t 48 0" stroke="#fdf6e0" stroke-width="2" fill="none"/>
<path d="M 56 546 q 24 -9 48 0 t 48 0 t 48 0 t 48 0" stroke="#fdf6e0" stroke-width="2" fill="none"/>
<path d="M 30 568 q 24 -9 48 0 t 48 0 t 48 0 t 48 0" stroke="#fdf6e0" stroke-width="2" fill="none"/>
<path d="M 56 590 q 24 -9 48 0 t 48 0 t 48 0 t 48 0" stroke="#fdf6e0" stroke-width="2" fill="none"/>
<path d="M 30 612 q 24 -9 48 0 t 48 0 t 48 0 t 48 0" stroke="#fdf6e0" stroke-width="2" fill="none"/>
<rect x="0.0" y="460.0" width="1200.0" height="12.0" rx="0" fill="#241f10"/>
<path d="M 90.0 104.0 Q 417.0 146.0 744.0 104.0" stroke="#241f10" stroke-width="2" fill="none"/>
<polygon points="209.8,117.4 231.8,117.4 220.8,147.4" fill="#e03e2f"/>
<polygon points="340.6,124.2 362.6,124.2 351.6,154.2" fill="#e03e2f"/>
<polygon points="471.4,124.2 493.4,124.2 482.4,154.2" fill="#e03e2f"/>
<polygon points="602.2,117.4 624.2,117.4 613.2,147.4" fill="#e03e2f"/>
<text x="90.0" y="90.0" fill="#241f10" font-family="'Helvetica Neue', Helvetica, Arial, sans-serif" font-size="13" font-weight="normal" text-anchor="start" font-style="italic">replies to the mayoral question: 4</text>
<polygon points="486.0,506.0 642.0,506.0 620.0,536.0 506.0,536.0" fill="#241f10"/>
<rect x="486.0" y="499.0" width="156.0" height="7.0" rx="0" fill="#c99a1e"/>
<rect x="530.0" y="472.0" width="62.0" height="27.0" rx="2" fill="#fdf6e0" stroke="#241f10" stroke-width="2"/>
<rect x="540.0" y="478.0" width="14.0" height="13.0" rx="0" fill="#ffe08a"/>
<rect x="562.0" y="478.0" width="14.0" height="13.0" rx="0" fill="#ffe08a"/>
<rect x="598.0" y="460.0" width="15.0" height="39.0" rx="2" fill="#e03e2f"/>
<line x1="504.0" y1="498.0" x2="504.0" y2="444.0" stroke="#241f10" stroke-width="3"/>
<path d="M 507.0 448.0 q 40 22 0 44" stroke="#241f10" stroke-width="2" fill="#f0cf6a"/>
<path d="M 468.0 546.0 q 22 -8 44 0 t 44 0" stroke="#fdf6e0" stroke-width="2" fill="none"/>
<path d="M 468.0 562.0 q 22 -8 44 0 t 44 0" stroke="#fdf6e0" stroke-width="2" fill="none"/>
<rect x="46.0" y="402.0" width="54.0" height="54.0" rx="3" fill="#c99a1e" stroke="#241f10" stroke-width="2"/>
<line x1="50.0" y1="429.0" x2="96.0" y2="429.0" stroke="#fdf6e0" stroke-width="3"/>
<line x1="73.0" y1="406.0" x2="73.0" y2="452.0" stroke="#fdf6e0" stroke-width="3"/>
<rect x="112.0" y="402.0" width="54.0" height="54.0" rx="3" fill="#c99a1e" stroke="#241f10" stroke-width="2"/>
<line x1="116.0" y1="429.0" x2="162.0" y2="429.0" stroke="#fdf6e0" stroke-width="3"/>
<line x1="139.0" y1="406.0" x2="139.0" y2="452.0" stroke="#fdf6e0" stroke-width="3"/>
<rect x="178.0" y="402.0" width="54.0" height="54.0" rx="3" fill="#e03e2f" stroke="#241f10" stroke-width="2"/>
<line x1="182.0" y1="429.0" x2="228.0" y2="429.0" stroke="#fdf6e0" stroke-width="3"/>
<line x1="205.0" y1="406.0" x2="205.0" y2="452.0" stroke="#fdf6e0" stroke-width="3"/>
<polygon points="205.0,382.0 189.0,400.0 221.0,400.0" fill="#e03e2f"/>
<circle cx="205.0" cy="378.0" r="9.0" fill="#fdf6e0"/>
<circle cx="205.0" cy="378.0" r="6.0" fill="#e03e2f"/>
<text x="46.0" y="386.0" fill="#241f10" font-family="'Helvetica Neue', Helvetica, Arial, sans-serif" font-size="14" font-weight="bold" text-anchor="start">offers received: 3</text>
<text x="46.0" y="494.0" fill="#241f10" font-family="'Helvetica Neue', Helvetica, Arial, sans-serif" font-size="15" font-weight="bold" text-anchor="start">chosen: Kampala</text>
<text x="1160.0" y="504.0" fill="#fdf6e0" font-family="'Helvetica Neue', Helvetica, Arial, sans-serif" font-size="14" font-weight="bold" text-anchor="end">the roll: 9</text>
<rect x="1056.0" y="516.0" width="46.0" height="46.0" rx="8" fill="#fdf6e0" stroke="#241f10" stroke-width="2"/>
<circle cx="1068.9" cy="528.9" r="4.4" fill="#241f10"/>
<circle cx="1089.1" cy="528.9" r="4.4" fill="#241f10"/>
<circle cx="1068.9" cy="549.1" r="4.4" fill="#241f10"/>
<circle cx="1089.1" cy="549.1" r="4.4" fill="#241f10"/>
<rect x="1114.0" y="516.0" width="46.0" height="46.0" rx="8" fill="#fdf6e0" stroke="#241f10" stroke-width="2"/>
<circle cx="1126.0" cy="528.0" r="4.4" fill="#241f10"/>
<circle cx="1148.0" cy="528.0" r="4.4" fill="#241f10"/>
<circle cx="1137.0" cy="539.0" r="4.4" fill="#241f10"/>
<circle cx="1126.0" cy="550.0" r="4.4" fill="#241f10"/>
<circle cx="1148.0" cy="550.0" r="4.4" fill="#241f10"/>
<rect x="480.0" y="250.0" width="12.0" height="210.0" rx="0" fill="#241f10"/>
<rect x="404.0" y="250.0" width="150.0" height="11.0" rx="0" fill="#241f10"/>
<line x1="420.0" y1="261.0" x2="420.0" y2="320.0" stroke="#241f10" stroke-width="2"/>
<rect x="406.0" y="320.0" width="28.0" height="22.0" rx="2" fill="#e03e2f"/>
<path d="M 250.0 150.0 q 9.0 -11.0 18.0 0 q 9.0 -11.0 18.0 0" stroke="#241f10" stroke-width="2.5" fill="none"/>
<path d="M 302.0 126.0 q 6.5 -7.9 13.0 0 q 6.5 -7.9 13.0 0" stroke="#241f10" stroke-width="2.5" fill="none"/>
<path d="M 958.0 252.0 q 7.7 -9.5 15.5 0 q 7.7 -9.5 15.5 0" stroke="#241f10" stroke-width="2.5" fill="none"/>
<g transform="rotate(-4 852.0 172.0)">
<rect x="702.0" y="128.0" width="306.0" height="88.0" rx="6" fill="none" opacity="0.8" stroke="#241f10" stroke-width="3"/>
<text x="855.0" y="164.0" fill="#241f10" font-family="'Helvetica Neue', Helvetica, Arial, sans-serif" font-size="15" font-weight="bold" text-anchor="middle" letter-spacing="1.5">TOYS &amp; NOVELTIES</text>
<text x="855.0" y="192.0" fill="#241f10" font-family="'Helvetica Neue', Helvetica, Arial, sans-serif" font-size="14" font-weight="normal" text-anchor="middle" font-style="italic">Prizes for a fête, and nothing se…</text>
</g>
<rect x="0.0" y="642.0" width="1200.0" height="58.0" rx="0" fill="#241f10"/>
<text x="28.0" y="668.0" fill="#fdf6e0" font-family="Georgia, 'Times New Roman', serif" font-size="15" font-weight="normal" text-anchor="start" font-style="italic">One crate came off the boat with a ribbon on it. Kampala sent it. The others are not saying anything.</text>
<text x="28.0" y="688.0" fill="#fdf6e0" font-family="'Helvetica Neue', Helvetica, Arial, sans-serif" font-size="11" font-weight="normal" text-anchor="start">Published once per round by the Sister Cities desk. Mayors are named by city and office only.</text>
</svg>