<svg xmlns="http://www.w3.org/2000/svg" viewBox="0 0 1200 700" width="1200" height="700" role="img" aria-label="A harbour scene in the Daily Manifest's colours, stamped wildlife &amp; nature, 4 crates on the quay, 1 of them ribboned, dice showing 3 and 6, a skyline of 5 city towers ranked by profit, and 5 pennants overhead, one per reply.">
<rect x="0.0" y="0.0" width="1200.0" height="700.0" rx="0" fill="#f3f7ec"/>
<rect x="0.0" y="0.0" width="1200.0" height="66.0" rx="0" fill="#1a2415"/>
<text x="28.0" y="44.0" fill="#f3f7ec" font-family="Georgia, 'Times New Roman', serif" font-size="30" font-weight="bold" text-anchor="start" letter-spacing="3">THE DAILY MANIFEST</text>
<text x="1172.0" y="30.0" fill="#f3f7ec" font-family="'Helvetica Neue', Helvetica, Arial, sans-serif" font-size="15" font-weight="normal" text-anchor="end">Vol. I, No. 11</text>
<text x="1172.0" y="52.0" fill="#f3f7ec" font-family="'Helvetica Neue', Helvetica, Arial, sans-serif" font-size="13" font-weight="normal" text-anchor="end" font-style="italic">Sunday, 13 September 2026</text>
<rect x="0.0" y="66.0" width="1200.0" height="368.0" rx="0" fill="#bfe08a"/>
<circle cx="984.0" cy="170.0" r="54.0" fill="#e4772e" opacity="0.9"/>
<rect x="584.8" y="166.0" width="58.0" height="268.0" rx="0" fill="#6a9a3c"/>
<rect x="597.6" y="178.0" width="11.6" height="11.0" rx="0" fill="#e4772e" opacity="0.85"/>
<rect x="618.4" y="178.0" width="11.6" height="11.0" rx="0" fill="#e4772e" opacity="0.85"/>
<rect x="597.6" y="204.0" width="11.6" height="11.0" rx="0" fill="#e4772e" opacity="0.85"/>
<rect x="618.4" y="204.0" width="11.6" height="11.0" rx="0" fill="#e4772e" opacity="0.85"/>
<rect x="597.6" y="230.0" width="11.6" height="11.0" rx="0" fill="#e4772e" opacity="0.85"/>
<rect x="618.4" y="230.0" width="11.6" height="11.0" rx="0" fill="#e4772e" opacity="0.85"/>
<rect x="597.6" y="256.0" width="11.6" height="11.0" rx="0" fill="#e4772e" opacity="0.85"/>
<rect x="618.4" y="256.0" width="11.6" height="11.0" rx="0" fill="#e4772e" opacity="0.85"/>
<rect x="597.6" y="282.0" width="11.6" height="11.0" rx="0" fill="#e4772e" opacity="0.85"/>
<rect x="618.4" y="282.0" width="11.6" height="11.0" rx="0" fill="#e4772e" opacity="0.85"/>
<rect x="597.6" y="308.0" width="11.6" height="11.0" rx="0" fill="#e4772e" opacity="0.85"/>
<rect x="618.4" y="308.0" width="11.6" height="11.0" rx="0" fill="#e4772e" opacity="0.85"/>
<rect x="597.6" y="334.0" width="11.6" height="11.0" rx="0" fill="#e4772e" opacity="0.85"/>
<rect x="618.4" y="334.0" width="11.6" height="11.0" rx="0" fill="#e4772e" opacity="0.85"/>
<rect x="597.6" y="360.0" width="11.6" height="11.0" rx="0" fill="#e4772e" opacity="0.85"/>
<rect x="618.4" y="360.0" width="11.6" height="11.0" rx="0" fill="#e4772e" opacity="0.85"/>
<rect x="597.6" y="386.0" width="11.6" height="11.0" rx="0" fill="#e4772e" opacity="0.85"/>
<rect x="618.4" y="386.0" width="11.6" height="11.0" rx="0" fill="#e4772e" opacity="0.85"/>
<rect x="597.6" y="412.0" width="11.6" height="11.0" rx="0" fill="#e4772e" opacity="0.85"/>
<rect x="618.4" y="412.0" width="11.6" height="11.0" rx="0" fill="#e4772e" opacity="0.85"/>
<text x="613.8" y="146.0" fill="#1a2415" font-family="'Helvetica Neue', Helvetica, Arial, sans-serif" font-size="14" font-weight="bold" text-anchor="middle">23.75</text>
<text x="613.8" y="426.0" fill="#f3f7ec" font-family="'Helvetica Neue', Helvetica, Arial, sans-serif" font-size="12" font-weight="normal" text-anchor="middle">Kampala</text>
<rect x="708.4" y="264.5" width="58.0" height="169.5" rx="0" fill="#a8c96a"/>
<rect x="721.2" y="276.5" width="11.6" height="11.0" rx="0" fill="#e4772e" opacity="0.85"/>
<rect x="742.0" y="276.5" width="11.6" height="11.0" rx="0" fill="#e4772e" opacity="0.85"/>
<rect x="721.2" y="302.5" width="11.6" height="11.0" rx="0" fill="#e4772e" opacity="0.85"/>
<rect x="742.0" y="302.5" width="11.6" height="11.0" rx="0" fill="#e4772e" opacity="0.85"/>
<rect x="721.2" y="328.5" width="11.6" height="11.0" rx="0" fill="#e4772e" opacity="0.85"/>
<rect x="742.0" y="328.5" width="11.6" height="11.0" rx="0" fill="#e4772e" opacity="0.85"/>
<rect x="721.2" y="354.5" width="11.6" height="11.0" rx="0" fill="#e4772e" opacity="0.85"/>
<rect x="742.0" y="354.5" width="11.6" height="11.0" rx="0" fill="#e4772e" opacity="0.85"/>
<rect x="721.2" y="380.5" width="11.6" height="11.0" rx="0" fill="#e4772e" opacity="0.85"/>
<rect x="742.0" y="380.5" width="11.6" height="11.0" rx="0" fill="#e4772e" opacity="0.85"/>
<rect x="721.2" y="406.5" width="11.6" height="11.0" rx="0" fill="#e4772e" opacity="0.85"/>
<rect x="742.0" y="406.5" width="11.6" height="11.0" rx="0" fill="#e4772e" opacity="0.85"/>
<text x="737.4" y="244.5" fill="#1a2415" font-family="'Helvetica Neue', Helvetica, Arial, sans-serif" font-size="14" font-weight="bold" text-anchor="middle">13.75</text>
<text x="737.4" y="426.0" fill="#f3f7ec" font-family="'Helvetica Neue', Helvetica, Arial, sans-serif" font-size="12" font-weight="normal" text-anchor="middle">Valparaíso</text>
<rect x="832.0" y="281.8" width="58.0" height="152.2" rx="0" fill="#6a9a3c"/>
<rect x="844.8" y="293.8" width="11.6" height="11.0" rx="0" fill="#e4772e" opacity="0.85"/>
<rect x="865.6" y="293.8" width="11.6" height="11.0" rx="0" fill="#e4772e" opacity="0.85"/>
<rect x="844.8" y="319.8" width="11.6" height="11.0" rx="0" fill="#e4772e" opacity="0.85"/>
<rect x="865.6" y="319.8" width="11.6" height="11.0" rx="0" fill="#e4772e" opacity="0.85"/>
<rect x="844.8" y="345.8" width="11.6" height="11.0" rx="0" fill="#e4772e" opacity="0.85"/>
<rect x="865.6" y="345.8" width="11.6" height="11.0" rx="0" fill="#e4772e" opacity="0.85"/>
<rect x="844.8" y="371.8" width="11.6" height="11.0" rx="0" fill="#e4772e" opacity="0.85"/>
<rect x="865.6" y="371.8" width="11.6" height="11.0" rx="0" fill="#e4772e" opacity="0.85"/>
<rect x="844.8" y="397.8" width="11.6" height="11.0" rx="0" fill="#e4772e" opacity="0.85"/>
<rect x="865.6" y="397.8" width="11.6" height="11.0" rx="0" fill="#e4772e" opacity="0.85"/>
<text x="861.0" y="261.8" fill="#1a2415" font-family="'Helvetica Neue', Helvetica, Arial, sans-serif" font-size="14" font-weight="bold" text-anchor="middle">12</text>
<text x="861.0" y="426.0" fill="#f3f7ec" font-family="'Helvetica Neue', Helvetica, Arial, sans-serif" font-size="12" font-weight="normal" text-anchor="middle">Bergen</text>
<rect x="955.6" y="303.9" width="58.0" height="130.1" rx="0" fill="#a8c96a"/>
<rect x="968.4" y="315.9" width="11.6" height="11.0" rx="0" fill="#e4772e" opacity="0.85"/>
<rect x="989.2" y="315.9" width="11.6" height="11.0" rx="0" fill="#e4772e" opacity="0.85"/>
<rect x="968.4" y="341.9" width="11.6" height="11.0" rx="0" fill="#e4772e" opacity="0.85"/>
<rect x="989.2" y="341.9" width="11.6" height="11.0" rx="0" fill="#e4772e" opacity="0.85"/>
<rect x="968.4" y="367.9" width="11.6" height="11.0" rx="0" fill="#e4772e" opacity="0.85"/>
<rect x="989.2" y="367.9" width="11.6" height="11.0" rx="0" fill="#e4772e" opacity="0.85"/>
<rect x="968.4" y="393.9" width="11.6" height="11.0" rx="0" fill="#e4772e" opacity="0.85"/>
<rect x="989.2" y="393.9" width="11.6" height="11.0" rx="0" fill="#e4772e" opacity="0.85"/>
<rect x="968.4" y="419.9" width="11.6" height="11.0" rx="0" fill="#e4772e" opacity="0.85"/>
<rect x="989.2" y="419.9" width="11.6" height="11.0" rx="0" fill="#e4772e" opacity="0.85"/>
<text x="984.6" y="283.9" fill="#1a2415" font-family="'Helvetica Neue', Helvetica, Arial, sans-serif" font-size="14" font-weight="bold" text-anchor="middle">9.75</text>
<text x="984.6" y="426.0" fill="#f3f7ec" font-family="'Helvetica Neue', Helvetica, Arial, sans-serif" font-size="12" font-weight="normal" text-anchor="middle">Reykjavík</text>
<rect x="1079.2" y="313.8" width="58.0" height="120.2" rx="0" fill="#6a9a3c"/>
<rect x="1092.0" y="325.8" width="11.6" height="11.0" rx="0" fill="#e4772e" opacity="0.85"/>
<rect x="1112.8" y="325.8" width="11.6" height="11.0" rx="0" fill="#e4772e" opacity="0.85"/>
<rect x="1092.0" y="351.8" width="11.6" height="11.0" rx="0" fill="#e4772e" opacity="0.85"/>
<rect x="1112.8" y="351.8" width="11.6" height="11.0" rx="0" fill="#e4772e" opacity="0.85"/>
<rect x="1092.0" y="377.8" width="11.6" height="11.0" rx="0" fill="#e4772e" opacity="0.85"/>
<rect x="1112.8" y="377.8" width="11.6" height="11.0" rx="0" fill="#e4772e" opacity="0.85"/>
<rect x="1092.0" y="403.8" width="11.6" height="11.0" rx="0" fill="#e4772e" opacity="0.85"/>
<rect x="1112.8" y="403.8" width="11.6" height="11.0" rx="0" fill="#e4772e" opacity="0.85"/>
<text x="1108.2" y="293.8" fill="#1a2415" font-family="'Helvetica Neue', Helvetica, Arial, sans-serif" font-size="14" font-weight="bold" text-anchor="middle">8.75</text>
<text x="1108.2" y="426.0" fill="#f3f7ec" font-family="'Helvetica Neue', Helvetica, Arial, sans-serif" font-size="12" font-weight="normal" text-anchor="middle">Hobart</text>
<rect x="0.0" y="434.0" width="1200.0" height="266.0" rx="0" fill="#3f6b3a"/>
<rect x="0.0" y="434.0" width="1200.0" height="26.0" rx="0" fill="#6a9a3c" opacity="0.55"/>
<path d="M 30 480 q 24 -9 48 0 t 48 0 t 48 0 t 48 0" stroke="#f3f7ec" stroke-width="2" fill="none"/>
<path d="M 56 502 q 24 -9 48 0 t 48 0 t 48 0 t 48 0" stroke="#f3f7ec" stroke-width="2" fill="none"/>
<path d="M 30 524 q 24 -9 48 0 t 48 0 t 48 0 t 48 0" stroke="#f3f7ec" stroke-width="2" fill="none"/>
<path d="M 56 546 q 24 -9 48 0 t 48 0 t 48 0 t 48 0" stroke="#f3f7ec" stroke-width="2" fill="none"/>
<path d="M 30 568 q 24 -9 48 0 t 48 0 t 48 0 t 48 0" stroke="#f3f7ec" stroke-width="2" fill="none"/>
<path d="M 56 590 q 24 -9 48 0 t 48 0 t 48 0 t 48 0" stroke="#f3f7ec" stroke-width="2" fill="none"/>
<path d="M 30 612 q 24 -9 48 0 t 48 0 t 48 0 t 48 0" stroke="#f3f7ec" stroke-width="2" fill="none"/>
<rect x="0.0" y="460.0" width="1200.0" height="12.0" rx="0" fill="#1a2415"/>
<path d="M 90.0 104.0 Q 417.0 146.0 744.0 104.0" stroke="#1a2415" stroke-width="2" fill="none"/>
<polygon points="188.0,115.7 210.0,115.7 199.0,145.7" fill="#e4772e"/>
<polygon points="297.0,122.7 319.0,122.7 308.0,152.7" fill="#e4772e"/>
<polygon points="406.0,125.0 428.0,125.0 417.0,155.0" fill="#e4772e"/>
<polygon points="515.0,122.7 537.0,122.7 526.0,152.7" fill="#e4772e"/>
<polygon points="624.0,115.7 646.0,115.7 635.0,145.7" fill="#a8c96a"/>
<text x="90.0" y="90.0" fill="#1a2415" font-family="'Helvetica Neue', Helvetica, Arial, sans-serif" font-size="13" font-weight="normal" text-anchor="start" font-style="italic">replies to the mayoral question: 5</text>
<rect x="46.0" y="402.0" width="54.0" height="54.0" rx="3" fill="#6a9a3c" stroke="#1a2415" stroke-width="2"/>
<line x1="50.0" y1="429.0" x2="96.0" y2="429.0" stroke="#f3f7ec" stroke-width="3"/>
<line x1="73.0" y1="406.0" x2="73.0" y2="452.0" stroke="#f3f7ec" stroke-width="3"/>
<rect x="112.0" y="402.0" width="54.0" height="54.0" rx="3" fill="#e4772e" stroke="#1a2415" stroke-width="2"/>
<line x1="116.0" y1="429.0" x2="162.0" y2="429.0" stroke="#f3f7ec" stroke-width="3"/>
<line x1="139.0" y1="406.0" x2="139.0" y2="452.0" stroke="#f3f7ec" stroke-width="3"/>
<polygon points="139.0,382.0 123.0,400.0 155.0,400.0" fill="#e4772e"/>
<circle cx="139.0" cy="378.0" r="9.0" fill="#f3f7ec"/>
<circle cx="139.0" cy="378.0" r="6.0" fill="#e4772e"/>
<rect x="178.0" y="402.0" width="54.0" height="54.0" rx="3" fill="#6a9a3c" stroke="#1a2415" stroke-width="2"/>
<line x1="182.0" y1="429.0" x2="228.0" y2="429.0" stroke="#f3f7ec" stroke-width="3"/>
<line x1="205.0" y1="406.0" x2="205.0" y2="452.0" stroke="#f3f7ec" stroke-width="3"/>
<rect x="244.0" y="402.0" width="54.0" height="54.0" rx="3" fill="#6a9a3c" stroke="#1a2415" stroke-width="2"/>
<line x1="248.0" y1="429.0" x2="294.0" y2="429.0" stroke="#f3f7ec" stroke-width="3"/>
<line x1="271.0" y1="406.0" x2="271.0" y2="452.0" stroke="#f3f7ec" stroke-width="3"/>
<text x="46.0" y="386.0" fill="#1a2415" font-family="'Helvetica Neue', Helvetica, Arial, sans-serif" font-size="14" font-weight="bold" text-anchor="start">offers received: 4</text>
<text x="46.0" y="494.0" fill="#1a2415" font-family="'Helvetica Neue', Helvetica, Arial, sans-serif" font-size="15" font-weight="bold" text-anchor="start">chosen: Bergen</text>
<text x="1160.0" y="504.0" fill="#f3f7ec" font-family="'Helvetica Neue', Helvetica, Arial, sans-serif" font-size="14" font-weight="bold" text-anchor="end">the roll: 9</text>
<rect x="1056.0" y="516.0" width="46.0" height="46.0" rx="8" fill="#f3f7ec" stroke="#1a2415" stroke-width="2"/>
<circle cx="1068.0" cy="528.0" r="4.4" fill="#1a2415"/>
<circle cx="1079.0" cy="539.0" r="4.4" fill="#1a2415"/>
<circle cx="1090.0" cy="550.0" r="4.4" fill="#1a2415"/>
<rect x="1114.0" y="516.0" width="46.0" height="46.0" rx="8" fill="#f3f7ec" stroke="#1a2415" stroke-width="2"/>
<circle cx="1126.9" cy="527.0" r="4.4" fill="#1a2415"/>
<circle cx="1147.1" cy="527.0" r="4.4" fill="#1a2415"/>
<circle cx="1126.9" cy="539.0" r="4.4" fill="#1a2415"/>
<circle cx="1147.1" cy="539.0" r="4.4" fill="#1a2415"/>
<circle cx="1126.9" cy="551.0" r="4.4" fill="#1a2415"/>
<circle cx="1147.1" cy="551.0" r="4.4" fill="#1a2415"/>
<rect x="480.0" y="250.0" width="12.0" height="210.0" rx="0" fill="#1a2415"/>
<rect x="404.0" y="250.0" width="150.0" height="11.0" rx="0" fill="#1a2415"/>
<line x1="420.0" y1="261.0" x2="420.0" y2="320.0" stroke="#1a2415" stroke-width="2"/>
<rect x="406.0" y="320.0" width="28.0" height="22.0" rx="2" fill="#e4772e"/>
<path d="M 250.0 150.0 q 9.0 -11.0 18.0 0 q 9.0 -11.0 18.0 0" stroke="#1a2415" stroke-width="2.5" fill="none"/>
<path d="M 302.0 126.0 q 6.5 -7.9 13.0 0 q 6.5 -7.9 13.0 0" stroke="#1a2415" stroke-width="2.5" fill="none"/>
<path d="M 958.0 252.0 q 7.7 -9.5 15.5 0 q 7.7 -9.5 15.5 0" stroke="#1a2415" stroke-width="2.5" fill="none"/>
<g transform="rotate(-4 852.0 172.0)">
<rect x="702.0" y="128.0" width="306.0" height="88.0" rx="6" fill="none" opacity="0.8" stroke="#1a2415" stroke-width="3"/>
<text x="855.0" y="164.0" fill="#1a2415" font-family="'Helvetica Neue', Helvetica, Arial, sans-serif" font-size="15" font-weight="bold" text-anchor="middle" letter-spacing="1.5">WILDLIFE &amp; NATURE</text>
<text x="855.0" y="192.0" fill="#1a2415" font-family="'Helvetica Neue', Helvetica, Arial, sans-serif" font-size="14" font-weight="normal" text-anchor="middle" font-style="italic">A tree that can take the salt</text>
</g>
<rect x="0.0" y="642.0" width="1200.0" height="58.0" rx="0" fill="#1a2415"/>
<text x="28.0" y="668.0" fill="#f3f7ec" font-family="Georgia, 'Times New Roman', serif" font-size="15" font-weight="normal" text-anchor="start" font-style="italic">One crate came off the boat with a ribbon on it. Bergen sent it. The others are not saying anything.</text>
<text x="28.0" y="688.0" fill="#f3f7ec" font-family="'Helvetica Neue', Helvetica, Arial, sans-serif" font-size="11" font-weight="normal" text-anchor="start">Published once per round by the Sister Cities desk. Mayors are named by city and office only.</text>
</svg>